# xmcd
#
# Track frame offsets:
#	150
#	18327
#	32070
#	48027
#	64645
#	80665
#	97630
#	113035
#	129410
#	144420
#	160372
#	177130
#	192360
#	204500
#	217210
#	233687
#	245672
#	261200
#
# Disc length: 3725
#
# Revision: 1
# Processed by: cddbd v1.5.1PL0 Copyright (c) Steve Scherf et al.
# Submitted via: CDex 1.50beta9
# Normalized: r0:TDELIM( - )
#
DISCID=f20e8b12
DTITLE=Various Artist - CDX Volume 64 - Aug 1993
DYEAR=1993
DGENRE=Country
TTITLE0=Mark Chesnutt - Almost Goodbye
TTITLE1=Dale Daniel - Coming Back To Haunt Me
TTITLE2=The Marshall Tucker Band - Down We Go
TTITLE3=Jeff Knight - Easy Street
TTITLE4=Little Texas - God Blessed Texas
TTITLE5=Ronna Reeves - He's My Weakness
TTITLE6=Debra Burns - He Thinks He's Robin Hood
TTITLE7=Daron Norwood - If It Wasn't For Her I Wouldn't Have You
TTITLE8=Rick Trevino - Just Enough Rope
TTITLE9=Bobby Hood - Lost In The Neon Lights
TTITLE10=Alan Jackson - Mercury Blues
TTITLE11=Alabama - Reckless
TTITLE12=Chris Isaak - Solitary Man
TTITLE13=Vondal Wayne - Someone Borrowed, Someone Blue
TTITLE14=Mark Collie - Something's Gonna Change Her Mind
TTITLE15=Billy Yates - Turn For The Worse
TTITLE16=Highway 101 - You Baby You
TTITLE17=Clay Walker - What's It To You
EXTD=YEAR: 1993
EXTT0=
EXTT1=
EXTT2=
EXTT3=
EXTT4=
EXTT5=
EXTT6=
EXTT7=
EXTT8=
EXTT9=
EXTT10=
EXTT11=
EXTT12=
EXTT13=
EXTT14=
EXTT15=
EXTT16=
EXTT17=
PLAYORDER=
